:FULLY-SPECIFIED
:FORCE-ALL-JOINTS-BE-3DOF
:DEGREES
1
root -2.95645 16.8291 -36.2757 3.79203 -0.409345 -2.77144
lfemur -18.1857 -3.85478 -7.37129
ltibia 37.6337 0 0
lfoot -17.8071 6.78532 0
ltoes -26.1578 0 0
rfemur -19.1521 0.15077 14.7318
rtibia 40.3652 0 0
rfoot -23.1652 -2.86285 0
rtoes -21.0274 0 0
lowerback 7.02591 2.55716 -1.97249
upperback -3.14202 3.31583 1.27229
thorax -7.43554 1.75645 1.99661
lowerneck -4.68188 -4.04088 -6.84108
upperneck 4.69893 -5.30737 6.47589
head 2.76948 -2.5844 3.14763
lclavicle 1.91563e-15 -9.24349e-15 0
lhumerus -27.0689 -5.33108 89.6453
lradius 25.7364 0 0
lwrist -30.6252 0 0
lhand -28.8405 29.9909 0
lfingers 7.12502 0 0
lthumb -2.19771 59.9594 0
rclavicle 1.91563e-15 -9.24349e-15 0
rhumerus -32.8355 4.71181 -81.727
rradius 32.9783 0 0
rwrist 3.84135 0 0
rhand -24.1523 -25.0894 0
rfingers 7.12502 0 0
rthumb 2.33029 -55.0564 0
2
root -2.95805 16.8276 -36.279 3.88378 -0.439692 -2.78217
lfemur -18.251 -3.763 -7.39902
ltibia 37.593 0 0
lfoot -17.7574 6.97128 0
ltoes -26.2461 0 0
rfemur -19.2272 0.168877 14.7475
rtibia 40.3112 0 0
rfoot -23.0733 -2.73129 0
rtoes -20.6572 0 0
lowerback 6.90609 2.55868 -1.95343
upperback -3.1563 3.32153 1.26889
thorax -7.38042 1.75822 1.98542
lowerneck -4.66737 -4.03486 -6.8424
upperneck 4.70573 -5.30121 6.49052
head 2.7692 -2.58122 3.1535
lclavicle -6.70556e-17 -9.31912e-15 0
lhumerus -27.035 -5.31553 89.6282
lradius 25.7194 0 0
lwrist -30.6409 0 0
lhand -28.8213 29.9954 0
lfingers 7.12502 0 0
lthumb -2.17921 59.9641 0
rclavicle -6.70556e-17 -9.31912e-15 0
rhumerus -32.7958 4.6824 -81.7236
rradius 32.9364 0 0
rwrist 3.85728 0 0
rhand -24.0186 -25.1632 0
rfingers 7.12502 0 0
rthumb 2.45944 -55.128 0
3
root -2.95964 16.8261 -36.2824 3.96172 -0.454569 -2.79147
lfemur -18.306 -3.74146 -7.41088
ltibia 37.5566 0 0
lfoot -17.7162 7.10621 0
ltoes -26.3658 0 0
rfemur -19.2818 0.201805 14.7598
rtibia 40.2586 0 0
rfoot -23.0123 -2.67405 0
rtoes -20.4901 0 0
lowerback 6.79925 2.56088 -1.94057
upperback -3.17026 3.32731 1.26581
thorax -7.33288 1.76037 1.97766
lowerneck -4.66128 -4.03295 -6.84368
upperneck 4.71275 -5.29981 6.50075
head 2.77077 -2.58039 3.15749
lclavicle -1.61994e-15 -9.52603e-15 0
lhumerus -27.0155 -5.30541 89.6116
lradius 25.7044 0 0
lwrist -30.6599 0 0
lhand -28.8079 29.9994 0
lfingers 7.12502 0 0
lthumb -2.16625 59.9682 0
rclavicle -1.61994e-15 -9.52603e-15 0
rhumerus -32.7735 4.67128 -81.7284
rradius 32.9222 0 0
rwrist 3.86982 0 0
rhand -23.9366 -25.2025 0
rfingers 7.12502 0 0
rthumb 2.53859 -55.166 0
4
root -2.96124 16.8247 -36.2857 4.02563 -0.457785 -2.79927
lfemur -18.3508 -3.77029 -7.41095
ltibia 37.5252 0 0
lfoot -17.6833 7.19786 0
ltoes -26.5008 0 0
rfemur -19.3189 0.243263 14.7691
rtibia 40.21 0 0
rfoot -22.9763 -2.67204 0
rtoes -20.4746 0 0
lowerback 6.70748 2.56344 -1.93279
upperback -3.18322 3.33283 1.26314
thorax -7.2933 1.76267 1.97274
lowerneck -4.66141 -4.03402 -6.84485
upperneck 4.71952 -5.30183 6.50732
head 2.77353 -2.58125 3.15994
lclavicle -2.785e-15 -9.81323e-15 0
lhumerus -27.0072 -5.29968 89.5964
lradius 25.6915 0 0
lwrist -30.6802 0 0
lhand -28.7993 30.0028 0
lfingers 7.12502 0 0
lthumb -2.1579 59.9717 0
rclavicle -2.785e-15 -9.81323e-15 0
rhumerus -32.7647 4.6736 -81.7387
rradius 32.9283 0 0
rwrist 3.8793 0 0
rhand -23.8955 -25.2154 0
rfingers 7.12502 0 0
rthumb 2.5783 -55.1783 0
